<svg width="218" height="23" viewBox="0 0 218 23" fill="none" xmlns="http://www.w3.org/2000/svg">
<path d="M22.722 0.03267H32.5584V22.8693H26.4598V5.32528L17.1809 22.8693H15.3775L6.09855 5.32528V22.8693H0V0.03267H9.83637L16.2628 12.4474L22.722 0.03267Z" fill="white"/>
<path d="M56.9638 0.163352L63.9149 23H57.6852L56.0786 17.7074H43.7503L42.1437 23H35.914L42.865 0.163352H56.9638ZM52.2752 5.16193H47.5537L45.3897 12.4148H54.4392L52.2752 5.16193Z" fill="white"/>
<path d="M93.6998 12.5781C93.3392 14.9304 92.4211 16.4332 90.5522 17.2173L93.8966 22.902H86.9783L84.0602 17.9034H73.4041V22.8693H67.3056V0.03267H86.093C90.6506 0.03267 92.9457 1.40483 93.6671 5.03125C93.831 5.91335 93.8966 7.71023 93.8966 8.82102C93.8966 9.89915 93.8638 11.598 93.6998 12.5781ZM73.4041 5.03125V12.6108H85.5357C86.6832 12.6108 87.6013 11.6634 87.6013 10.5526V7.08949C87.6013 5.94602 86.6832 5.03125 85.5357 5.03125H73.4041Z" fill="white"/>
<path d="M124.754 8.65767L124.787 14.6364C124.787 17.3153 124.459 18.2955 124.295 18.8509C123.803 20.4517 122.787 21.6932 121.049 22.3139C120.229 22.608 118.819 22.902 116.983 22.902H98.1959V17.9034H115.869C118.196 17.9034 118.688 16.4986 118.688 14.669V13.6562H98.2287L98.1959 8.23295C98.1959 5.58665 98.5238 4.60653 98.6877 4.05114C99.1795 2.41761 100.196 1.20881 101.934 0.588068C102.753 0.261364 104.163 0 105.999 0H123.311V4.99858H107.114C104.753 4.99858 104.294 6.40341 104.294 8.23295V8.65767H124.754Z" fill="white"/>
<path d="M155.981 5.03125H135.489V8.9517H152.801V13.9503H135.489V17.9034H155.981V22.8693H129.39V0.03267H155.981V5.03125Z" fill="white"/>
<path d="M186.716 12.5781C186.356 14.9304 185.438 16.4332 183.569 17.2173L186.913 22.902H179.995L177.077 17.9034H166.421V22.8693H160.322V0.03267H179.109C183.667 0.03267 185.962 1.40483 186.683 5.03125C186.847 5.91335 186.913 7.71023 186.913 8.82102C186.913 9.89915 186.88 11.598 186.716 12.5781ZM166.421 5.03125V12.6108H178.552C179.7 12.6108 180.618 11.6634 180.618 10.5526V7.08949C180.618 5.94602 179.7 5.03125 178.552 5.03125H166.421Z" fill="white"/>
<path d="M209.606 0.03267C216 0.03267 218 2.97301 218 9.24574V14.0156C218 20.517 215.147 22.8693 208.754 22.8693H200.229C193.835 22.8693 191.016 20.517 191.016 14.0156V9.24574C191.016 2.97301 193.016 0.03267 199.409 0.03267H209.606ZM211.705 14.3423V8.91903C211.705 6.50142 210.918 5.03125 208.655 5.03125H200.36C198.098 5.03125 197.311 6.50142 197.311 8.91903V14.3423C197.311 17.2827 198.262 17.9034 200.393 17.9034H208.623C210.754 17.9034 211.705 17.2827 211.705 14.3423Z" fill="white"/>
</svg>
