<svg width="30" height="30" viewBox="0 0 30 30" fill="none" xmlns="http://www.w3.org/2000/svg">
<rect width="30" height="30" rx="15" fill="#0A66C2"/>
<g clip-path="url(#clip0_659_584)">
<path d="M6.25 8.58417C6.25 8.02109 6.44708 7.55657 6.84122 7.19059C7.23535 6.82459 7.74775 6.6416 8.37838 6.6416C8.99775 6.6416 9.49887 6.82177 9.88176 7.18214C10.2759 7.55376 10.473 8.03799 10.473 8.63484C10.473 9.17538 10.2815 9.62582 9.89865 9.9862C9.50451 10.3578 8.98649 10.5436 8.34459 10.5436H8.3277C7.70833 10.5436 7.20721 10.3578 6.82432 9.9862C6.44144 9.61457 6.25 9.14723 6.25 8.58417ZM6.46959 23.3646V12.0808H10.2196V23.3646H6.46959ZM12.2973 23.3646H16.0473V17.0639C16.0473 16.6697 16.0923 16.3657 16.1824 16.1517C16.3401 15.7688 16.5794 15.4451 16.9003 15.1805C17.2213 14.9158 17.6239 14.7835 18.1081 14.7835C19.3694 14.7835 20 15.6337 20 17.3342V23.3646H23.75V16.895C23.75 15.2283 23.3559 13.9642 22.5676 13.1027C21.7793 12.2413 20.7376 11.8105 19.4426 11.8105C17.9899 11.8105 16.8581 12.4355 16.0473 13.6855V13.7193H16.0304L16.0473 13.6855V12.0808H12.2973C12.3198 12.4411 12.3311 13.5616 12.3311 15.4423C12.3311 17.3229 12.3198 19.9637 12.2973 23.3646Z" fill="white"/>
</g>
<defs>
<clipPath id="clip0_659_584">
<rect x="6.25" y="6.25" width="17.5" height="17.5" fill="white"/>
</clipPath>
</defs>
</svg>
