<svg width="30" height="30" viewBox="0 0 30 30" fill="none" xmlns="http://www.w3.org/2000/svg">
<rect width="30" height="30" rx="15" fill="url(#paint0_linear_659_597)"/>
<path fill-rule="evenodd" clip-rule="evenodd" d="M6.78977 14.8419C11.1626 12.9368 14.0785 11.6808 15.5374 11.0739C19.7031 9.3413 20.5687 9.04032 21.1329 9.03038C21.257 9.02819 21.5344 9.05895 21.7141 9.20477C21.8659 9.32791 21.9076 9.49425 21.9276 9.61099C21.9476 9.72774 21.9725 9.99369 21.9527 10.2015C21.7269 12.5733 20.7502 18.3292 20.2533 20.9857C20.043 22.1098 19.629 22.4867 19.2281 22.5236C18.3571 22.6037 17.6956 21.9479 16.8519 21.3949C15.5317 20.5295 14.7859 19.9907 13.5044 19.1463C12.0235 18.1703 12.9835 17.6339 13.8275 16.7573C14.0484 16.5279 17.8864 13.037 17.9607 12.7203C17.97 12.6807 17.9786 12.533 17.8909 12.4551C17.8032 12.3771 17.6737 12.4038 17.5803 12.425C17.4479 12.455 15.3389 13.849 11.2532 16.607C10.6546 17.018 10.1123 17.2183 9.62652 17.2078C9.09094 17.1962 8.06071 16.905 7.29483 16.656C6.35545 16.3507 5.60886 16.1892 5.67387 15.6707C5.70773 15.4005 6.0797 15.1243 6.78977 14.8419Z" fill="white"/>
<defs>
<linearGradient id="paint0_linear_659_597" x1="15" y1="0" x2="15" y2="29.7775" gradientUnits="userSpaceOnUse">
<stop stop-color="#2AABEE"/>
<stop offset="1" stop-color="#229ED9"/>
</linearGradient>
</defs>
</svg>
